<mxfile host="app.diagrams.net" agent="Mozilla/5.0 (Windows NT 10.0; Win64; x64) AppleWebKit/537.36 (KHTML, like Gecko) Chrome/134.0.0.0 Safari/537.36" version="26.1.3">
  <diagram name="ProjektMagazyn" id="1">
    <mxGraphModel dx="934" dy="1715" grid="1" gridSize="10" guides="1" tooltips="1" connect="1" arrows="1" fold="1" page="1" pageScale="1" pageWidth="827" pageHeight="1169" math="0" shadow="0">
      <root>
        <mxCell id="0" />
        <mxCell id="1" parent="0" />
        <mxCell id="2" value="&lt;&lt;b&gt;Przesylka&lt;/b&gt;&gt;&#xa;- typ: QString&#xa;- id: QString&#xa;---&#xa;+ getTyp(): QString&#xa;+ getId(): QString" style="shape=swimlane;html=1;whiteSpace=wrap;startSize=90;" parent="1" vertex="1">
          <mxGeometry x="10" y="-40" width="200" height="120" as="geometry" />
        </mxCell>
        <mxCell id="3" value="&lt;&lt;b&gt;Magazyn&lt;/b&gt;&gt;&#xa;- stosy: QMap&lt;QString, QStack&lt;Przesylka&gt;&gt;&#xa;- globalnyStos: QStack&lt;Przesylka&gt;&#xa;---&#xa;+ dodajPrzesylke()&#xa;+ usunOstatnia()&#xa;+ oproznij()" style="shape=swimlane;html=1;whiteSpace=wrap;startSize=110;" parent="1" vertex="1">
          <mxGeometry x="260" y="-260" width="200" height="140" as="geometry" />
        </mxCell>
        <mxCell id="4" value="&lt;&lt;b&gt;MagazynManager&lt;/b&gt;&gt;&#xa;- magazynA: Magazyn&#xa;- magazynB: Magazyn&#xa;- aktywny: TypMagazynu&#xa;---&#xa;+ dodajDoAktywnego()&#xa;+ przeniesJednaPaczke()" style="shape=swimlane;html=1;whiteSpace=wrap;startSize=140;" parent="1" vertex="1">
          <mxGeometry x="520" y="-40" width="200" height="170" as="geometry" />
        </mxCell>
        <mxCell id="5" value="&lt;&lt;b&gt;HistoriaPrzesylek&lt;/b&gt;&gt;&#xa;- historia: QStringList&#xa;---&#xa;+ dodajDoHistorii()&#xa;+ pobierzHistorie()" style="shape=swimlane;html=1;whiteSpace=wrap;startSize=70;" parent="1" vertex="1">
          <mxGeometry x="270" y="210" width="200" height="120" as="geometry" />
        </mxCell>
        <mxCell id="6" value="&lt;&lt;b&gt;LosowaniePrzesylek&lt;/b&gt;&gt;&#xa;---&#xa;+ losujPrzesylke(): Przesylka" style="shape=swimlane;html=1;whiteSpace=wrap;startSize=70;" parent="1" vertex="1">
          <mxGeometry x="10" y="210" width="200" height="120" as="geometry" />
        </mxCell>
        <mxCell id="7" value="&lt;&lt;b&gt;SortowaniePrzesylek&lt;/b&gt;&gt;&#xa;- stosy: QMap&lt;QString, QStack&lt;QString&gt;&gt;&#xa;---&#xa;+ dodajPrzesylke()&#xa;+ pobierzStosy()" style="shape=swimlane;html=1;whiteSpace=wrap;startSize=80;" parent="1" vertex="1">
          <mxGeometry x="520" y="210" width="200" height="120" as="geometry" />
        </mxCell>
        <mxCell id="8" value="&lt;&lt;b&gt;MainWindow&lt;/b&gt;&gt;&#xa;- ui: Ui::MainWindow*&#xa;- manager: MagazynManager&#xa;---&#xa;+ on_losujButton_clicked()&#xa;+ on_usunOstatniaButton_clicked()&#xa;+ on_oproznijMagazynButton_clicked()&#xa;+ on_przeniesButton_clicked()" style="shape=swimlane;html=1;whiteSpace=wrap;startSize=140;" parent="1" vertex="1">
          <mxGeometry x="240" y="-40" width="230" height="180" as="geometry" />
        </mxCell>
        <mxCell id="9" style="endArrow=block;html=1;entryX=0.5;entryY=0;" parent="1" target="2" edge="1">
          <mxGeometry relative="1" as="geometry">
            <mxPoint x="300" y="-120" as="sourcePoint" />
          </mxGeometry>
        </mxCell>
        <mxCell id="10" style="endArrow=block;html=1;entryX=0.5;entryY=1;exitX=0.5;exitY=0;exitDx=0;exitDy=0;entryDx=0;entryDy=0;" parent="1" source="4" target="3" edge="1">
          <mxGeometry relative="1" as="geometry" />
        </mxCell>
        <mxCell id="11" style="endArrow=block;html=1;exitX=1;exitY=0.5;exitDx=0;exitDy=0;" parent="1" source="8" edge="1">
          <mxGeometry relative="1" as="geometry">
            <mxPoint x="520" y="80" as="targetPoint" />
          </mxGeometry>
        </mxCell>
        <mxCell id="12" style="endArrow=block;html=1;exitX=0.5;exitY=0;exitDx=0;exitDy=0;entryX=0.5;entryY=1;entryDx=0;entryDy=0;" parent="1" source="6" target="2" edge="1">
          <mxGeometry relative="1" as="geometry">
            <mxPoint x="110" y="140" as="targetPoint" />
          </mxGeometry>
        </mxCell>
        <mxCell id="13" style="endArrow=block;html=1;entryX=0.846;entryY=-0.001;exitX=0.25;exitY=1;entryDx=0;entryDy=0;entryPerimeter=0;exitDx=0;exitDy=0;" parent="1" source="8" target="6" edge="1">
          <mxGeometry relative="1" as="geometry" />
        </mxCell>
        <mxCell id="14" style="endArrow=block;html=1;entryX=0.801;entryY=-0.001;entryDx=0;entryDy=0;entryPerimeter=0;" parent="1" target="5" edge="1">
          <mxGeometry relative="1" as="geometry">
            <mxPoint x="430" y="140" as="sourcePoint" />
            <mxPoint x="430" y="200" as="targetPoint" />
          </mxGeometry>
        </mxCell>
      </root>
    </mxGraphModel>
  </diagram>
</mxfile>
